PathFileType	4	(x/y/z)	S02_P20_T16
DataRate	CameraRate	NumFrames	NumMarkers	Units	OrigDataRate	OrigDataStartFrame	OrigNumFrames
240	240	10	51	mm	240	43	342
Frame#	Time	Sternum			R.Acromium			L.Acromium			Top.Head			R.ASIS			L.ASIS			R.PSIS			L.PSIS			R.Great.Tro			L.Great.Tro			R.Iliac.Crest			L.Iliac.Crest			V.Sacral			R.Thigh.Upper.Post			R.Thigh.Lower.Ant			R.Thigh.Lower.Post			R.Thigh.Upper.Ant			R.Knee.Lat			R.Knee.Med			R.Shank.Upper.Post			R.Shank.Lower.Ant			R.Shank.Lower.Post			R.Shank.Upper.Ant			R.Ankle.Lat			R.Ankle.Med			R.Heel.Upper			R.Heel.Med			R.Heel.Lat			R.Toe.Lat			R.Toe.Med			R.Toe.Tip			L.Thigh.Upper.Post			L.Thigh.Lower.Ant			L.Thigh.Lower.Post			L.Thigh.Upper.Ant			L.Knee.Lat			L.Knee.Med			L.Shank.Upper.Post			L.Shank.Lower.Ant			L.Shank.Lower.Post			L.Shank.Upper.Ant			L.Ankle.Lat			L.Ankle.Med			L.Heel.Upper			L.Heel.Med			L.Heel.Lat			L.Toe.Lat			L.Toe.Med			L.Toe.Tip			Cervical.Spine			Back			
		X1	Y1	Z1	X2	Y2	Z2	X3	Y3	Z3	X4	Y4	Z4	X5	Y5	Z5	X6	Y6	Z6	X7	Y7	Z7	X8	Y8	Z8	X9	Y9	Z9	X10	Y10	Z10	X11	Y11	Z11	X12	Y12	Z12	X13	Y13	Z13	X14	Y14	Z14	X15	Y15	Z15	X16	Y16	Z16	X17	Y17	Z17	X18	Y18	Z18	X19	Y19	Z19	X20	Y20	Z20	X21	Y21	Z21	X22	Y22	Z22	X23	Y23	Z23	X24	Y24	Z24	X25	Y25	Z25	X26	Y26	Z26	X27	Y27	Z27	X28	Y28	Z28	X29	Y29	Z29	X30	Y30	Z30	X31	Y31	Z31	X32	Y32	Z32	X33	Y33	Z33	X34	Y34	Z34	X35	Y35	Z35	X36	Y36	Z36	X37	Y37	Z37	X38	Y38	Z38	X39	Y39	Z39	X40	Y40	Z40	X41	Y41	Z41	X42	Y42	Z42	X43	Y43	Z43	X44	Y44	Z44	X45	Y45	Z45	X46	Y46	Z46	X47	Y47	Z47	X48	Y48	Z48	X49	Y49	Z49	X50	Y50	Z50	X51	Y51	Z51	

43	0.175	-974.89	1090.6	296.1	-1083.8	1330.9	434.36	-1083.3	1329.5	140.03	-1019	1616.5	282	-1025.8	912.07	406.93	-1003	916.24	196.12	-1232.5	952.63	342.36	-1241.3	965.22	269.42	-1102.3	793.22	491.53	-1123.7	837.05	102.99	-1127.9	958.81	460.21	-1126.4	968.94	125.28	-1262.2	910.97	295.62	-1067	596.03	489.35	-996.58	523.5	471.83	-1067.8	506.45	475.18	-999.76	612.68	481.94	-1046.5	433.37	471.28	-1025.4	411.76	326.45	-1236.7	362.53	440.37	-1261	255.18	429.92	NaN	NaN	NaN	-1203.3	296.98	448.02	-1357.3	242.29	418.27	-1326.6	238.31	336.63	-1389	287.41	357.58	-1401.9	262.73	324.52	-1424.9	272.05	387.3	-1363	122.06	438.82	-1332.2	93.114	338.26	-1294.9	61.751	399.82	-1102.9	596.47	129.03	-1011.1	534.86	138.47	-1085.8	510.3	154.56	-1037.5	623.75	114.66	-1013.1	451.92	153.42	-1016.4	454.98	290.7	-1097.6	287.01	154.87	-1036.3	196.29	177.81	-1106.2	215.23	172.93	-1036.7	270.08	159.04	-1091.2	99.323	193.37	-1082.4	94.93	274.38	-1152.9	66.587	226.5	-1144.8	41.374	260.05	-1146.3	38.55	198.29	-979.85	34.692	171.22	-960.17	44.36	281.57	-899.29	60.226	234.78	-1164.6	1395.4	287.68	-1239.5	1142.8	301.54
44	0.17917	-969.66	1091.9	296.61	-1079.4	1332.2	434.36	-1077.5	1330.4	139.9	-1013.8	1617.6	281.78	-1020.8	913.26	406.89	-997.81	916.85	196.01	-1227.3	953.89	341.71	-1236	966.45	268.78	-1097.2	794.7	491.33	-1118.8	837.86	102.84	-1123	959.93	459.9	-1120.8	969.9	124.9	-1257.1	912.26	294.97	-1058.6	597.98	489.7	-987.26	526.29	472.5	-1058.1	508.37	475.62	-991.54	615.44	482.48	-1035.8	435.69	471.83	-1014.7	414.26	326.8	-1225.6	363.75	439.89	-1248.6	256.05	429.58	NaN	NaN	NaN	-1191.7	298.54	447.75	-1345.1	242.64	417.52	-1314.3	238.88	335.98	-1377.1	287.31	356.63	-1389.6	262.36	323.57	-1412.7	271.59	386.28	-1349.6	122.55	438.41	-1318.2	93.75	337.95	-1281.1	62.767	399.85	-1100.2	597.3	128.91	-1009	534.82	138.56	-1083.9	510.95	154.42	-1034.5	623.98	114.78	-1011.9	451.9	153.53	-1015.5	454.9	290.82	-1097.1	287.27	154.98	-1036.1	196.31	177.77	-1105.8	215.4	173.03	-1036.2	270.12	159.04	-1091.1	99.459	193.4	-1082.4	95.061	274.37	-1152.9	66.716	226.54	-1144.7	41.529	260.06	-1146.3	38.693	198.31	-979.85	34.702	171.23	-960.15	44.365	281.56	-899.26	60.195	234.78	-1159.2	1396.4	287.24	-1234.4	1143.8	300.65
45	0.18333	-964.45	1093.1	297.11	-1075	1333.4	434.37	-1071.8	1331.3	139.79	-1008.6	1618.7	281.58	-1015.8	914.48	406.85	-992.59	917.42	195.9	-1222.1	955.2	341.07	-1230.6	967.7	268.14	-1092.1	796.2	491.15	-1114	838.63	102.7	-1118	961.12	459.58	-1115.3	970.83	124.52	-1252	913.6	294.34	-1050.2	600	490.04	-977.98	529.16	473.08	-1048.3	510.37	476.03	-983.35	618.25	482.95	-1025.2	438.07	472.33	-1004.1	416.85	327.13	-1214.4	364.81	439.4	-1236.1	256.75	429.24	-1268.8	316.55	427.59	-1180	300	447.44	-1332.7	242.67	416.79	-1301.9	239.19	335.34	-1365.2	286.85	355.71	-1377.3	261.61	322.65	-1400.3	270.68	385.29	-1335.8	122.72	438	-1303.9	94.16	337.61	-1266.9	63.667	399.82	-1097.5	598.12	128.83	-1006.9	534.78	138.7	-1082	511.61	154.32	-1031.5	624.19	114.93	-1010.7	451.91	153.68	-1014.7	454.85	290.99	-1096.6	287.54	155.12	-1035.8	196.36	177.76	-1105.3	215.59	173.13	-1035.8	270.19	159.07	-1091.1	99.603	193.44	-1082.4	95.196	274.36	-1152.8	66.856	226.58	-1144.7	41.692	260.08	-1146.3	38.847	198.33	-979.84	34.712	171.24	-960.13	44.366	281.56	-899.22	60.159	234.78	-1153.8	1397.4	286.82	-1229.2	1144.9	299.76
46	0.1875	-959.26	1094.4	297.6	-1070.5	1334.7	434.38	-1066.1	1332.2	139.7	-1003.4	1619.8	281.42	-1010.8	915.74	406.8	-987.38	917.97	195.78	-1217	956.55	340.43	-1225.2	968.96	267.51	-1087	797.72	490.99	-1109.2	839.37	102.57	-1113	962.37	459.26	-1109.8	971.73	124.14	-1246.9	914.98	293.73	-1041.7	602.07	490.36	-968.73	532.09	473.58	-1038.7	512.45	476.42	-975.17	621.12	483.35	-1014.7	440.49	472.76	-993.54	419.53	327.43	-1203.3	365.69	438.91	-1223.6	257.29	428.88	-1258.6	316.17	427.2	-1168.2	301.36	447.08	-1320.1	242.39	416.07	-1289.4	239.24	334.7	-1353.2	286.04	354.83	-1364.9	260.48	321.77	-1387.8	269.35	384.33	-1321.8	122.59	437.58	-1289.2	94.347	337.24	-1252.2	64.443	399.73	-1094.8	598.96	128.79	-1004.8	534.76	138.88	-1080.2	512.28	154.26	-1028.5	624.41	115.12	-1009.5	451.94	153.85	-1013.9	454.81	291.21	-1096.1	287.81	155.27	-1035.5	196.42	177.77	-1104.9	215.8	173.23	-1035.4	270.27	159.12	-1091.1	99.752	193.49	-1082.3	95.338	274.36	-1152.8	67.006	226.62	-1144.7	41.864	260.09	-1146.3	39.012	198.35	-979.83	34.721	171.25	-960.1	44.364	281.56	-899.18	60.118	234.78	-1148.4	1398.3	286.42	-1224.1	1145.9	298.87
47	0.19167	-954.09	1095.7	298.08	-1066	1336	434.39	-1060.3	1333.2	139.64	-998.22	1620.9	281.28	-1005.7	917.02	406.72	-982.18	918.5	195.67	-1211.8	957.94	339.81	-1219.8	970.23	266.89	-1081.9	799.25	490.85	-1104.4	840.07	102.46	-1107.9	963.68	458.92	-1104.4	972.6	123.75	-1241.8	916.39	293.16	-1033.3	604.19	490.68	-959.52	535.06	474	-1029.1	514.58	476.79	-967.03	624.02	483.69	-1004.2	442.95	473.12	-983.08	422.29	327.7	-1192.2	366.38	438.43	-1211	257.66	428.52	-1247.9	315.69	426.8	-1156.5	302.61	446.69	-1307.5	241.79	415.38	-1276.8	239.03	334.09	-1341.2	284.87	353.99	-1352.5	259	320.93	-1375.2	267.61	383.42	-1307.5	122.16	437.17	-1274.3	94.319	336.85	-1237.3	65.093	399.59	-1092.1	599.79	128.79	-1002.8	534.74	139.1	-1078.3	512.96	154.25	-1025.6	624.62	115.35	-1008.3	451.98	154.04	-1013	454.81	291.46	-1095.7	288.09	155.44	-1035.3	196.51	177.8	-1104.5	216.02	173.35	-1035	270.36	159.19	-1091	99.909	193.54	-1082.3	95.486	274.37	-1152.7	67.167	226.66	-1144.6	42.044	260.11	-1146.2	39.186	198.38	-979.82	34.729	171.27	-960.07	44.359	281.56	-899.13	60.073	234.79	-1142.9	1399.3	286.05	-1218.9	1146.9	297.98
48	0.19583	-948.95	1096.9	298.55	-1061.5	1337.3	434.39	-1054.6	1334.1	139.59	-993.04	1622	281.18	-1000.7	918.34	406.63	-976.98	919.01	195.55	-1206.5	959.36	339.21	-1214.4	971.5	266.29	-1076.8	800.78	490.72	-1099.7	840.73	102.35	-1102.7	965.05	458.58	-1098.9	973.43	123.36	-1236.6	917.82	292.61	-1025	606.34	490.99	-950.35	538.08	474.34	-1019.6	516.77	477.14	-958.9	626.94	483.97	-993.82	445.42	473.42	-972.68	425.1	327.94	-1181.1	366.88	437.95	-1198.4	257.86	428.16	-1236.8	315.12	426.4	-1144.8	303.75	446.26	-1294.7	240.89	414.72	-1264.1	238.58	333.49	-1329.1	283.37	353.19	-1339.9	257.17	320.13	-1362.5	265.48	382.55	-1292.9	121.46	436.76	-1259.1	94.084	336.45	-1222	65.613	399.4	-1089.4	600.62	128.84	-1000.7	534.72	139.34	-1076.5	513.65	154.27	-1022.7	624.83	115.6	-1007.2	452.04	154.25	-1012.1	454.82	291.74	-1095.2	288.37	155.62	-1035	196.61	177.84	-1104.2	216.26	173.48	-1034.6	270.48	159.29	-1091	100.07	193.6	-1082.3	95.642	274.38	-1152.7	67.34	226.7	-1144.6	42.233	260.13	-1146.2	39.368	198.41	-979.81	34.737	171.28	-960.03	44.352	281.56	-899.08	60.024	234.8	-1137.4	1400.2	285.69	-1213.8	1147.9	297.1
49	0.2	-943.83	1098.1	299	-1057	1338.6	434.39	-1049	1335.1	139.57	-987.88	1623.1	281.1	-995.69	919.69	406.51	-971.78	919.51	195.42	-1201.3	960.81	338.63	-1208.9	972.77	265.71	-1071.6	802.31	490.61	-1094.9	841.36	102.25	-1097.5	966.47	458.22	-1093.5	974.23	122.98	-1231.5	919.26	292.11	-1016.6	608.52	491.29	-941.24	541.12	474.6	-1010.1	519	477.47	-950.82	629.89	484.18	-983.5	447.9	473.66	-962.34	427.96	328.15	-1170	367.19	437.5	-1185.7	257.89	427.8	-1225.4	314.42	426.01	-1133.1	304.77	445.81	-1281.9	239.71	414.08	-1251.3	237.89	332.91	-1317	281.54	352.44	-1327.3	255.02	319.39	-1349.7	262.99	381.75	-1278.1	120.49	436.35	-1243.7	93.656	336.03	-1206.3	66.008	399.16	-1086.7	601.44	128.92	-998.71	534.71	139.62	-1074.7	514.35	154.33	-1019.8	625.03	115.88	-1006.1	452.12	154.47	-1011.2	454.84	292.05	-1094.8	288.65	155.81	-1034.8	196.73	177.91	-1103.8	216.5	173.63	-1034.2	270.61	159.4	-1090.9	100.24	193.67	-1082.2	95.807	274.4	-1152.6	67.522	226.74	-1144.5	42.429	260.15	-1146.2	39.559	198.44	-979.8	34.745	171.3	-960	44.345	281.56	-899.03	59.972	234.81	-1131.9	1401.2	285.34	-1208.6	1148.9	296.22
50	0.20417	-938.74	1099.4	299.43	-1052.4	1339.9	434.39	-1043.3	1336.1	139.56	-982.72	1624.1	281.06	-990.65	921.06	406.36	-966.6	920	195.28	-1196.1	962.26	338.08	-1203.3	974.01	265.16	-1066.5	803.84	490.51	-1090.2	841.96	102.16	-1092.2	967.93	457.85	-1088.1	975	122.61	-1226.3	920.71	291.65	-1008.3	610.7	491.58	-932.2	544.17	474.79	-1000.7	521.25	477.78	-942.77	632.83	484.34	-973.27	450.38	473.83	-952.06	430.87	328.34	-1159	367.32	437.07	-1173	257.77	427.43	-1213.8	313.6	425.62	-1121.4	305.68	445.33	-1269	238.25	413.49	-1238.4	236.97	332.36	-1304.8	279.4	351.74	-1314.7	252.54	318.7	-1336.9	260.14	381.01	-1263	119.28	435.96	-1228	93.047	335.61	-1190.4	66.281	398.89	-1084	602.27	129.03	-996.71	534.7	139.91	-1072.9	515.04	154.42	-1016.9	625.22	116.18	-1005	452.21	154.71	-1010.2	454.89	292.37	-1094.3	288.95	156	-1034.5	196.86	177.98	-1103.5	216.76	173.79	-1033.8	270.75	159.52	-1090.9	100.42	193.73	-1082.2	95.981	274.42	-1152.5	67.714	226.79	-1144.5	42.634	260.18	-1146.2	39.758	198.47	-979.79	34.753	171.33	-959.96	44.337	281.56	-898.97	59.916	234.82	-1126.4	1402.1	285.01	-1203.4	1149.9	295.34
51	0.20833	-933.66	1100.6	299.85	-1047.8	1341.2	434.38	-1037.7	1337.2	139.57	-977.57	1625.1	281.04	-985.61	922.45	406.18	-961.42	920.48	195.13	-1190.9	963.73	337.56	-1197.8	975.24	264.65	-1061.2	805.35	490.42	-1085.5	842.53	102.09	-1086.9	969.44	457.47	-1082.8	975.73	122.25	-1221.1	922.14	291.23	-1000	612.9	491.86	-923.22	547.24	474.91	-991.36	523.53	478.07	-934.78	635.78	484.43	-963.14	452.86	473.94	-941.83	433.8	328.5	-1148	367.25	436.67	-1160.2	257.48	427.07	-1201.9	312.64	425.25	-1109.7	306.48	444.83	-1255.9	236.53	412.93	-1225.4	235.83	331.84	-1292.6	276.95	351.09	-1301.9	249.75	318.07	-1323.9	256.96	380.33	-1247.7	117.85	435.58	-1212.1	92.272	335.2	-1174.2	66.44	398.59	-1081.4	603.08	129.18	-994.72	534.7	140.23	-1071.1	515.75	154.54	-1014	625.4	116.49	-1003.9	452.31	154.96	-1009.3	454.95	292.72	-1093.9	289.25	156.19	-1034.3	197.01	178.06	-1103.2	217.03	173.98	-1033.4	270.9	159.66	-1090.8	100.61	193.8	-1082.1	96.167	274.45	-1152.4	67.916	226.83	-1144.5	42.845	260.2	-1146.1	39.963	198.5	-979.77	34.761	171.35	-959.92	44.33	281.56	-898.9	59.857	234.83	-1120.9	1403	284.69	-1198.2	1150.9	294.47
52	0.2125	-928.61	1101.7	300.24	-1043.2	1342.4	434.36	-1032.1	1338.2	139.6	-972.44	1626.1	281.05	-980.56	923.86	405.97	-956.25	920.95	194.97	-1185.6	965.19	337.09	-1192.2	976.43	264.18	-1056	806.84	490.34	-1080.8	843.07	102.02	-1081.6	970.98	457.08	-1077.5	976.42	121.9	-1215.9	923.56	290.86	-991.81	615.08	492.13	-914.31	550.29	474.96	-982.12	525.82	478.33	-926.84	638.71	484.48	-953.1	455.31	473.99	-931.67	436.75	328.63	-1137	367	436.29	-1147.4	257.05	426.7	-1189.9	311.53	424.9	-1098.1	307.17	444.33	-1242.7	234.57	412.4	-1212.3	234.47	331.35	-1280.3	274.21	350.5	-1289	246.67	317.5	-1310.8	253.46	379.71	-1232.2	116.21	435.22	-1195.9	91.344	334.79	-1157.7	66.494	398.26	-1078.7	603.89	129.35	-992.74	534.69	140.55	-1069.3	516.45	154.68	-1011.1	625.58	116.82	-1002.8	452.42	155.22	-1008.4	455.02	293.08	-1093.4	289.56	156.39	-1034	197.17	178.15	-1103	217.3	174.19	-1033	271.07	159.8	-1090.8	100.8	193.86	-1082.1	96.364	274.47	-1152.4	68.125	226.87	-1144.4	43.063	260.22	-1146.1	40.175	198.54	-979.76	34.769	171.37	-959.87	44.325	281.55	-898.84	59.795	234.84	-1115.5	1403.9	284.38	-1193	1151.9	293.61
